<?xml version="1.0" encoding="utf-8"?>
<!-- Generator: Adobe Illustrator 18.0.0, SVG Export Plug-In . SVG Version: 6.00 Build 0)  -->
<!DOCTYPE svg PUBLIC "-//W3C//DTD SVG 1.1//EN" "http://www.w3.org/Graphics/SVG/1.1/DTD/svg11.dtd">
<svg version="1.1" id="Layer_1" xmlns="http://www.w3.org/2000/svg" xmlns:xlink="http://www.w3.org/1999/xlink" x="0px" y="0px"
	 viewBox="0 0 1000 1000" enable-background="new 0 0 1000 1000" xml:space="preserve">
<path d="M669.5,914.4H213.2c-37.3,0-67.8-30.5-67.8-67.8V247.2c0-37.3,30.5-67.8,67.8-67.8h456.3c37.3,0,67.8,30.5,67.8,67.8v599.4
	C737.3,883.9,706.8,914.4,669.5,914.4z"/>
<path fill="#FFFFFF" d="M832.2,853.4H270.9c-37.3,0-67.8-30.5-67.8-67.8V216.1c0-37.3,30.5-67.8,67.8-67.8h561.3
	c37.3,0,67.8,30.5,67.8,67.8v569.5C900,822.9,869.5,853.4,832.2,853.4z"/>
<path d="M800.2,805.9H313.4c-37.3,0-67.8-30.5-67.8-67.8V209.3c0-37.3,30.5-67.8,67.8-67.8h486.8c37.3,0,67.8,30.5,67.8,67.8v528.8
	C868,775.4,837.4,805.9,800.2,805.9z"/>
<rect x="298.1" y="85.6" fill="#FFFFFF" width="191.5" height="252.5"/>
<polygon points="298.1,338.1 393.9,211.9 489.7,338.1 "/>
</svg>
